<?xml version="1.0" encoding="UTF-8"?>
<svg version="1.1" xmlns="http://www.w3.org/2000/svg" width="1260" height="310">
<path d="M0 0 C96.69 0 193.38 0 293 0 C293 99 293 198 293 300 C196.31 300 99.62 300 0 300 C0 201 0 102 0 0 Z " fill="#2C529E" transform="translate(5,5)"/>
<path d="M0 0 C1.44161499 0.00700928 1.44161499 0.00700928 2.91235352 0.01416016 C11.58920178 0.19169527 19.23831747 1.84448624 27.5 4.4375 C35.65665375 7.06370104 35.65665375 7.06370104 43.80078125 5.3515625 C45.3477199 4.47555469 46.87813366 3.56942733 48.38671875 2.62890625 C55.40340936 -1.32689899 64.78059743 -0.41429128 72.37084961 1.32397461 C73.71817479 1.71320119 75.06195134 2.11487475 76.40234375 2.52734375 C77.13502472 2.74846329 77.86770569 2.96958282 78.62258911 3.19740295 C86.1162166 5.52361245 93.35687208 8.41025703 100.59545898 11.42550659 C102.95438378 12.40806559 105.31738585 13.38019438 107.68164062 14.34985352 C110.1543285 15.36411601 112.62676454 16.3789448 115.09796143 17.39683533 C127.28623741 22.41697133 139.52904779 27.30170752 151.7827301 32.15965271 C155.68014143 33.7064675 159.56455253 35.28104577 163.44140625 36.87890625 C186.48418415 46.250207 208.79113503 49.47504332 233.5 49.4375 C223.74177607 65.10263913 204.2194272 82.79611154 186.5 88.4375 C180.58388048 89.26067918 175.96914035 88.86388069 170.5 86.4375 C172.42366741 90.09246808 173.68278018 91.8657036 177.5 93.4375 C188.00628065 95.18854677 197.76035443 88.83277227 206.1171875 82.984375 C227.62350321 67.09985381 246.05786005 45.48498981 253.5 19.4375 C253.83 19.4375 254.16 19.4375 254.5 19.4375 C254.5 89.7275 254.5 160.0175 254.5 232.4375 C235.298125 232.52 216.09625 232.6025 196.3125 232.6875 C190.27042236 232.72391602 184.22834473 232.76033203 178.00317383 232.79785156 C170.57165527 232.81591797 170.57165527 232.81591797 167.08232117 232.8192749 C164.66786238 232.8253796 162.25341508 232.83936917 159.83903503 232.85980225 C141.0314097 233.01088643 124.40661539 232.77625329 109.8125 219.25 C98.88797323 207.52674604 94.29920761 193.87718451 94.375 178.125 C94.37113281 177.30193359 94.36726563 176.47886719 94.36328125 175.63085938 C94.37328396 169.56421604 94.37328396 169.56421604 95.5 168.4375 C97.72573168 168.13975311 99.9558467 167.87451609 102.1875 167.625 C109.68256041 166.72154168 109.68256041 166.72154168 115.5 162.4375 C117.47284215 156.91354197 116.52628709 153.81407906 114.0625 148.5625 C110.82263932 142.62026705 106.94959674 137.51691099 102.5 132.4375 C101.79875 131.62667969 101.0975 130.81585938 100.375 129.98046875 C91.48024757 119.89445484 82.03392413 110.78722464 71.5 102.4375 C70.40181772 101.52824513 69.30554788 100.61667679 68.2109375 99.703125 C44.34138287 79.93563193 10.5249489 54.90095761 -21.5 52.4375 C-21.5 51.7775 -21.5 51.1175 -21.5 50.4375 C-19.37607494 49.7674166 -17.25082476 49.10153203 -15.125 48.4375 C-13.94164063 48.06625 -12.75828125 47.695 -11.5390625 47.3125 C-8.5 46.4375 -8.5 46.4375 -6.5 46.4375 C-6.5 45.7775 -6.5 45.1175 -6.5 44.4375 C-9.47 43.7775 -12.44 43.1175 -15.5 42.4375 C-15.5 41.7775 -15.5 41.1175 -15.5 40.4375 C-12.43753253 38.65340198 -10.27920727 38.20869979 -6.75 38.3125 C-5.95078125 38.33054688 -5.1515625 38.34859375 -4.328125 38.3671875 C-3.72484375 38.39039063 -3.1215625 38.41359375 -2.5 38.4375 C-2.9125 37.365 -3.325 36.2925 -3.75 35.1875 C-3.98203125 34.58421875 -4.2140625 33.9809375 -4.453125 33.359375 C-6.46392569 29.66790507 -8.52899946 27.77458309 -12.515625 26.390625 C-13.58296875 26.15859375 -14.6503125 25.9265625 -15.75 25.6875 C-16.82765625 25.44515625 -17.9053125 25.2028125 -19.015625 24.953125 C-19.83546875 24.78296875 -20.6553125 24.6128125 -21.5 24.4375 C-19.43054806 20.40751465 -17.65868471 18.30980827 -13.5 16.4375 C5.50778162 13.4558872 21.39907586 23.78552096 37.08203125 32.84375 C54.37315186 42.71698246 69.39164488 44.81840033 88.62109375 39.66015625 C92.91302459 38.38920914 96.82494152 36.60580089 100.71484375 34.390625 C102.5 33.4375 102.5 33.4375 104.5 33.4375 C105.11875 34.159375 105.7375 34.88125 106.375 35.625 C113.07996007 42.40658819 123.32362809 44.03768191 132.3125 45.8125 C133.20775391 45.99240479 134.10300781 46.17230957 135.02539062 46.35766602 C141.78789815 47.59254225 147.28006475 47.7262014 153.5 44.4375 C152.44425781 44.29501831 152.44425781 44.29501831 151.3671875 44.1496582 C114.3166296 39.0558111 114.3166296 39.0558111 104.98046875 30.57421875 C103.41450344 29.13299873 103.41450344 29.13299873 100.5 29.4375 C99.08257218 30.16786505 97.68973777 30.94641376 96.3125 31.75 C83.70148245 38.18344664 65.38817797 40.26627314 51.78369141 35.94458008 C42.93869889 32.72585359 34.82085279 27.88501793 26.74365234 23.10864258 C14.65855658 15.99275431 2.19827363 11.01593955 -12.06640625 13.96875 C-16.68686357 15.36934991 -19.13189782 16.96074937 -22.5 20.4375 C-25.12474939 21.64029778 -27.75381054 22.52210351 -30.5 23.4375 C-29.71200038 15.55750382 -26.60662584 9.88852083 -20.671875 4.76171875 C-13.90411824 0.63533468 -7.75960232 -0.08297585 0 0 Z " fill="#DFAB44" transform="translate(43.5,72.5625)"/>
<path d="M0 0 C12.87 0 25.74 0 39 0 C41.8153125 5.2284375 41.8153125 5.2284375 44.6875 10.5625 C49.96520318 20.33559794 55.36185109 30.03515134 60.86010742 39.68579102 C61.37420166 40.58869873 61.8882959 41.49160645 62.41796875 42.421875 C62.86938232 43.21174805 63.3207959 44.00162109 63.78588867 44.81542969 C64.91743652 46.85144219 65.97635658 48.90801258 67 51 C72.91259013 40.61095275 78.66251625 30.14170422 84.30541992 19.60351562 C93.5137923 2.4862077 93.5137923 2.4862077 96 0 C108.54 0 121.08 0 134 0 C134 47.52 134 95.04 134 144 C121.79 144 109.58 144 97 144 C96.67 118.92 96.34 93.84 96 68 C92.7 73.94 89.4 79.88 86 86 C83.55602474 90.23899918 81.10516974 94.47008153 78.625 98.6875 C77.45025479 100.6912503 76.27576856 102.69515246 75.1015625 104.69921875 C74.29960449 106.06699463 74.29960449 106.06699463 73.48144531 107.46240234 C71.63250603 110.62948787 69.81082121 113.81099221 68 117 C64.21122721 115.73707574 63.96710351 114.65511028 62.1015625 111.20703125 C61.53824219 110.18158203 60.97492188 109.15613281 60.39453125 108.09960938 C59.81058594 107.01486328 59.22664063 105.93011719 58.625 104.8125 C52.03642887 92.68672547 45.03245828 80.90108325 38 69 C37.67 93.75 37.34 118.5 37 144 C24.79 144 12.58 144 0 144 C0 96.48 0 48.96 0 0 Z " fill="#2C529E" transform="translate(1121,41)"/>
<path d="M0 0 C86.91235955 0 86.91235955 0 100 13 C107.56482299 22.54045756 110.05045944 32.18423148 108.76171875 44.2265625 C107.04946577 54.01580678 101.89865455 60.97971397 93.953125 66.72265625 C92 68 92 68 90 69 C90.86882812 69.49628906 91.73765625 69.99257812 92.6328125 70.50390625 C102.31265476 76.1548033 109.80844949 81.78823187 113 93 C115.13608151 106.31542782 113.56464883 117.85374769 105.609375 128.9375 C96.91368202 138.77505165 84.28479878 141.36754312 72 144 C48.24 144 24.48 144 0 144 C0 96.48 0 48.96 0 0 Z M37 32 C37 40.58 37 49.16 37 58 C41.6715625 58.0928125 41.6715625 58.0928125 46.4375 58.1875 C47.39970459 58.21481201 48.36190918 58.24212402 49.35327148 58.27026367 C56.35525561 58.33670429 62.96089634 57.50726052 68.5 52.9375 C71.23198857 49.40868143 71.40005581 46.69495746 71.34375 42.32421875 C70.743215 38.26378324 69.05190124 36.72017284 66 34 C60.26530024 31.28888393 54.32028437 31.7765792 48.125 31.875 C42.618125 31.936875 42.618125 31.936875 37 32 Z M37 86 C37 94.91 37 103.82 37 113 C40.25875 113.04125 43.5175 113.0825 46.875 113.125 C47.88030762 113.14320801 48.88561523 113.16141602 49.92138672 113.18017578 C57.546107 113.2261883 66.90977587 113.1674629 73 108 C76.08605161 103.67952774 76.4296639 100.21163429 75.640625 95.1171875 C74.61270414 91.72003441 72.7919338 90.09395035 70 88 C66.0194905 86.03190461 62.80318401 85.76435448 58.38671875 85.8046875 C57.13955078 85.81113281 55.89238281 85.81757812 54.60742188 85.82421875 C53.31384766 85.84097656 52.02027344 85.85773438 50.6875 85.875 C49.37458984 85.88402344 48.06167969 85.89304687 46.70898438 85.90234375 C43.47257813 85.92588125 40.23626581 85.96175129 37 86 Z " fill="#2C529E" transform="translate(350,41)"/>
<path d="M0 0 C84.72497294 0 84.72497294 0 99.02734375 11.9921875 C106.24066214 19.33406008 108.89040685 27.97391452 109.25 38.0625 C108.6309293 47.81286359 106.06265861 56.31172287 98.67578125 63.15234375 C95.89191887 65.34446727 93.17418639 67.4129068 90 69 C90.86882812 69.49628906 91.73765625 69.99257812 92.6328125 70.50390625 C102.97727678 76.54129815 109.71454831 82.08385398 113 94 C115.17033868 105.84973234 113.51240818 116.79372589 107 127 C98.82336174 138.36920208 84.87979208 141.24004455 72 144 C48.24 144 24.48 144 0 144 C0 96.48 0 48.96 0 0 Z M37 32 C37 40.58 37 49.16 37 58 C41.6715625 58.0928125 41.6715625 58.0928125 46.4375 58.1875 C47.39970459 58.21481201 48.36190918 58.24212402 49.35327148 58.27026367 C56.35525561 58.33670429 62.96089634 57.50726052 68.5 52.9375 C71.23198857 49.40868143 71.40005581 46.69495746 71.34375 42.32421875 C70.743215 38.26378324 69.05190124 36.72017284 66 34 C60.26530024 31.28888393 54.32028437 31.7765792 48.125 31.875 C42.618125 31.936875 42.618125 31.936875 37 32 Z M37 86 C37 94.91 37 103.82 37 113 C40.25875 113.04125 43.5175 113.0825 46.875 113.125 C47.88030762 113.14320801 48.88561523 113.16141602 49.92138672 113.18017578 C57.546107 113.2261883 66.90977587 113.1674629 73 108 C76.02785967 103.76099646 76.52886434 100.21690557 75.78125 95.1875 C74.39077116 91.29415924 71.44907737 89.10860625 68 87 C64.64264863 85.88088288 62.11794614 85.88634414 58.58203125 85.90234375 C57.32841797 85.90556641 56.07480469 85.90878906 54.78320312 85.91210938 C52.81770508 85.92467773 52.81770508 85.92467773 50.8125 85.9375 C49.47721519 85.94251683 48.14192859 85.94707941 46.80664062 85.95117188 C43.5377412 85.96297296 40.26886498 85.98090864 37 86 Z " fill="#2C529E" transform="translate(630,41)"/>
<path d="M0 0 C12.87 0 25.74 0 39 0 C40.29550781 3.70476563 41.59101562 7.40953125 42.92578125 11.2265625 C51.99516588 37.15731388 61.07270507 63.08516912 70.1875 89 C70.58229553 90.12283386 70.97709106 91.24566772 71.3838501 92.40252686 C75.0341706 102.78210427 78.68686877 113.16055653 82.40625 123.515625 C82.65329178 124.20386353 82.90033356 124.89210205 83.15486145 125.60119629 C84.23565035 128.60974548 85.32076181 131.61662265 86.4128418 134.62109375 C86.76515869 135.59691406 87.11747559 136.57273438 87.48046875 137.578125 C87.77848389 138.39700195 88.07649902 139.21587891 88.38354492 140.05957031 C89 142 89 142 89 144 C75.8 144 62.6 144 49 144 C47.68 140.08125 46.36 136.1625 45 132.125 C44.58234375 130.89023926 44.1646875 129.65547852 43.734375 128.38330078 C43.40953125 127.41376465 43.0846875 126.44422852 42.75 125.4453125 C42.24726562 123.95281982 42.24726562 123.95281982 41.734375 122.43017578 C41 120 41 120 41 118 C26.48 118 11.96 118 -3 118 C-3.99 121.63 -4.98 125.26 -6 129 C-7.65 133.95 -9.3 138.9 -11 144 C-23.87 144 -36.74 144 -50 144 C-48.07088469 136.9265772 -46.10070903 130.11600712 -43.62109375 123.25390625 C-43.29694992 122.34546967 -42.97280609 121.43703308 -42.63883972 120.50106812 C-41.93993925 118.54291606 -41.23933417 116.58537171 -40.53717041 114.62838745 C-38.62595698 109.29991336 -36.72892491 103.96639798 -34.83203125 98.6328125 C-34.23862946 96.96511055 -34.23862946 96.96511055 -33.63323975 95.26371765 C-29.22277856 82.84736871 -24.92156095 70.39361954 -20.625 57.9375 C-15.60745501 43.40062859 -10.58006886 28.86819579 -5.4375 14.375 C-5.20903381 13.72989471 -4.98056763 13.08478943 -4.74517822 12.4201355 C-1.17819071 2.35638141 -1.17819071 2.35638141 0 0 Z M18 50 C16.427944 54.92787863 14.86151601 59.85749697 13.30029297 64.78881836 C12.76831171 66.46639318 12.23479164 68.14348082 11.69970703 69.82006836 C10.93117362 72.22904275 10.16817824 74.63971082 9.40625 77.05078125 C9.04533264 78.17592888 9.04533264 78.17592888 8.67712402 79.32380676 C7.73347017 82.32537082 7 84.8333449 7 88 C14.92 88 22.84 88 31 88 C29.7572297 82.40753366 28.53592249 77.19301022 26.8359375 71.77734375 C26.63900299 71.14639297 26.44206848 70.5154422 26.23916626 69.8653717 C25.62122551 67.88831442 24.99822397 65.91289739 24.375 63.9375 C23.95018168 62.58148641 23.5256999 61.22536735 23.1015625 59.86914062 C22.0715831 56.57820267 21.03706484 53.288713 20 50 C19.34 50 18.68 50 18 50 Z " fill="#2C529E" transform="translate(1022,41)"/>
<path d="M0 0 C1.60279192 0.00015914 3.20558896 0.00585476 4.80834961 0.01586914 C5.65038437 0.01728409 6.49241913 0.01869904 7.35997009 0.02015686 C10.06024671 0.02577276 12.76044163 0.03832791 15.46069336 0.05102539 C17.28686404 0.05603834 19.11303602 0.06060161 20.93920898 0.06469727 C25.42556878 0.07574735 29.9118672 0.0930226 34.39819336 0.11352539 C37.19220034 6.94503326 39.77134368 13.82647303 42.20678711 20.79321289 C42.56602264 21.81527328 42.92525818 22.83733368 43.29537964 23.8903656 C44.4775899 27.25568383 45.6566716 30.6220889 46.83569336 33.98852539 C47.66845509 36.36122318 48.50138485 38.733862 49.33447266 41.10644531 C51.79214964 48.10844689 54.24601831 55.11177716 56.69856262 62.1155777 C57.40417192 64.13059846 58.10985496 66.14559338 58.81555176 68.1605835 C63.00157141 80.11332959 67.18656955 92.06643287 71.36669922 104.02124023 C71.78869095 105.22778259 72.21068268 106.43432495 72.64546204 107.6774292 C73.45958743 110.00588129 74.27315432 112.33452875 75.08610535 114.66339111 C76.81693725 119.61751507 78.5554924 124.56811473 80.33325195 129.50561523 C80.61943893 130.3033989 80.90562592 131.10118256 81.20048523 131.92314148 C81.71571132 133.35580418 82.2347556 134.78710283 82.75862122 136.21662903 C83.76162576 139.00874335 84.39819336 141.11750016 84.39819336 144.11352539 C71.52819336 144.11352539 58.65819336 144.11352539 45.39819336 144.11352539 C40.7775037 132.56180125 40.7775037 132.56180125 39.14819336 127.73852539 C38.64545898 126.27286133 38.64545898 126.27286133 38.13256836 124.77758789 C37.39819336 122.11352539 37.39819336 122.11352539 37.39819336 118.11352539 C22.54819336 118.11352539 7.69819336 118.11352539 -7.60180664 118.11352539 C-7.93180664 120.42352539 -8.26180664 122.73352539 -8.60180664 125.11352539 C-9.0271701 126.73916104 -9.4938321 128.35488053 -10.01196289 129.95336914 C-10.37366577 131.08440063 -10.37366577 131.08440063 -10.74267578 132.23828125 C-11.04681396 133.16648682 -11.35095215 134.09469238 -11.66430664 135.05102539 C-13.11836914 139.53696289 -13.11836914 139.53696289 -14.60180664 144.11352539 C-27.47180664 144.11352539 -40.34180664 144.11352539 -53.60180664 144.11352539 C-51.35180364 133.98851188 -51.35180364 133.98851188 -50.03637695 130.22851562 C-49.74080399 129.37569504 -49.44523102 128.52287445 -49.14070129 127.64421082 C-48.82364731 126.74592056 -48.50659332 125.84763031 -48.17993164 124.92211914 C-47.84366257 123.95643509 -47.50739349 122.99075104 -47.16093445 121.99580383 C-46.0627271 118.84583193 -44.95736581 115.6984237 -43.85180664 112.55102539 C-43.07867336 110.33860988 -42.30597367 108.1260428 -41.53369141 105.91333008 C-39.96890145 101.43267659 -38.40117504 96.95306797 -36.83081055 92.47436523 C-34.85611904 86.84199332 -32.88942248 81.20687374 -30.92602539 75.57055664 C-24.95758236 58.44742177 -18.934885 41.34330228 -12.87844849 24.25109863 C-12.15575424 22.21065023 -11.43396405 20.16988139 -10.71310425 18.12878418 C-9.71399293 15.30106998 -8.7111741 12.47469914 -7.70727539 9.64868164 C-7.40694397 8.79663651 -7.10661255 7.94459137 -6.79718018 7.06672668 C-4.32716776 0.13638806 -4.32716776 0.13638806 0 0 Z M14.39819336 49.11352539 C12.68547489 54.34506039 10.97657488 59.57782099 9.27124023 64.81176758 C8.69026447 66.59303666 8.10823686 68.37396302 7.52514648 70.15454102 C6.68840826 72.71029246 5.85542986 75.26724255 5.02319336 77.82446289 C4.76070801 78.62347015 4.49822266 79.42247742 4.2277832 80.24569702 C2.88413943 84.09946013 2.88413943 84.09946013 2.39819336 88.11352539 C10.64819336 88.11352539 18.89819336 88.11352539 27.39819336 88.11352539 C23.61402932 75.0409587 19.56810097 62.06789377 15.39819336 49.11352539 C15.06819336 49.11352539 14.73819336 49.11352539 14.39819336 49.11352539 Z " fill="#2C529E" transform="translate(801.601806640625,40.886474609375)"/>
<path d="M0 0 C77.98130841 0 77.98130841 0 95 15 C105.3598233 25.53578633 107.30488053 39.04335531 107.31469727 53.07910156 C107.13593476 66.59735493 103.51521145 78.3789405 93.78125 88.25 C77.02634442 102.61134764 58.51514907 103 37 103 C37 116.53 37 130.06 37 144 C24.79 144 12.58 144 0 144 C0 96.48 0 48.96 0 0 Z M37 33 C37 45.87 37 58.74 37 72 C51.37585012 72.9499025 51.37585012 72.9499025 63.80078125 67.48828125 C68.02817477 62.99856737 69.96342258 58.57936143 70.02734375 52.32421875 C69.72119751 46.52314001 69.01393697 42.4478761 65 38 C55.32633456 30.69539548 51.68901307 33 37 33 Z " fill="#2C529E" transform="translate(478,41)"/>
<path d="M0 0 C35.64 0 71.28 0 108 0 C108 11.22 108 22.44 108 34 C96.45 34 84.9 34 73 34 C73 70.3 73 106.6 73 144 C60.46 144 47.92 144 35 144 C35 107.7 35 71.4 35 34 C23.45 34 11.9 34 0 34 C0 22.78 0 11.56 0 0 Z " fill="#2C529F" transform="translate(875,41)"/>
<path d="M0 0 C6.496875 -0.12375 6.496875 -0.12375 13.125 -0.25 C15.15744873 -0.30462402 15.15744873 -0.30462402 17.23095703 -0.36035156 C28.36512262 -0.46321526 28.36512262 -0.46321526 33 4 C35.89377953 7.01026642 36.45308889 9.16673069 36.5 13.3125 C36.3768455 19.05457876 34.76539645 21.763929 31 26 C32.1446875 26.309375 32.1446875 26.309375 33.3125 26.625 C36 28 36 28 37.875 30.5 C39.4055756 35.26179076 39.17283501 39.16306664 38 44 C35.8617964 47.8652142 33.42047628 49.70878196 29.34960938 51.39135742 C24.06291521 52.76082215 18.48135645 52.29746662 13.0625 52.1875 C8.751875 52.125625 4.44125 52.06375 0 52 C0 34.84 0 17.68 0 0 Z M10 8 C10 12.62 10 17.24 10 22 C16.18598752 22.28550712 20.66748889 22.33281945 26 19 C27.32908167 16.10927047 27.32908167 16.10927047 27 13 C25.28784522 9.83251366 24.46264391 9.15421464 21 8 C19.10529184 7.9314505 17.2083166 7.91519628 15.3125 7.9375 C13.559375 7.958125 11.80625 7.97875 10 8 Z M10 30 C10 34.62 10 39.24 10 44 C16.12332868 44.16776243 21.27224505 44.26723633 27 42 C29.1610211 38.75846834 29.64247553 37.76307099 29 34 C26.14976609 31.04758789 24.56975505 30.06267932 20.44921875 29.609375 C19.20785156 29.65578125 17.96648437 29.7021875 16.6875 29.75 C14.480625 29.8325 12.27375 29.915 10 30 Z " fill="#D29C2A" transform="translate(350,206)"/>
<path d="M0 0 C3 2.0625 3 2.0625 5 4 C5.66 3.360625 6.32 2.72125 7 2.0625 C10.60656108 -0.41701074 13.688066 -1.20455095 18 -1 C21.84113324 0.13344915 24.1852883 0.96495524 26.6809082 4.13549805 C28.33146203 7.71979346 28.37889823 10.8443403 28.29296875 14.70703125 C28.28872391 15.43242599 28.28447906 16.15782074 28.28010559 16.90519714 C28.26339543 19.20801891 28.2257596 21.50994553 28.1875 23.8125 C28.17244316 25.3795446 28.1587565 26.946603 28.14648438 28.51367188 C28.11351731 32.34278957 28.06178992 36.17124334 28 40 C25.03 40 22.06 40 19 40 C18.970271 38.75126099 18.970271 38.75126099 18.93994141 37.47729492 C18.86179258 34.385235 18.77509794 31.29356617 18.68261719 28.2019043 C18.62555908 26.2070464 18.57835558 24.2119146 18.53125 22.21679688 C18.47324219 20.33637695 18.47324219 20.33637695 18.4140625 18.41796875 C18.3826416 17.26063232 18.3512207 16.1032959 18.31884766 14.91088867 C18.20528967 11.80872972 18.20528967 11.80872972 16 9 C13.6568787 9.25561323 11.32156597 9.59270772 9 10 C7.60439955 12.79120091 7.78191712 15.20205692 7.68359375 18.3203125 C7.62075195 20.20556641 7.62075195 20.20556641 7.55664062 22.12890625 C7.51732422 23.44761719 7.47800781 24.76632813 7.4375 26.125 C7.39430488 27.46485751 7.35069027 28.80470156 7.30664062 30.14453125 C7.20029019 33.42957815 7.09826192 36.71470281 7 40 C3.7 40 0.4 40 -3 40 C-3.01981934 39.16750732 -3.03963867 38.33501465 -3.06005859 37.47729492 C-3.13820742 34.385235 -3.22490206 31.29356617 -3.31738281 28.2019043 C-3.37444092 26.2070464 -3.42164442 24.2119146 -3.46875 22.21679688 C-3.50742188 20.96318359 -3.54609375 19.70957031 -3.5859375 18.41796875 C-3.63306885 16.68196411 -3.63306885 16.68196411 -3.68115234 14.91088867 C-3.79471033 11.80872972 -3.79471033 11.80872972 -6 9 C-8.3431213 9.25561323 -10.67843403 9.59270772 -13 10 C-14.39560045 12.79120091 -14.21808288 15.20205692 -14.31640625 18.3203125 C-14.35830078 19.57714844 -14.40019531 20.83398438 -14.44335938 22.12890625 C-14.48267578 23.44761719 -14.52199219 24.76632813 -14.5625 26.125 C-14.60569512 27.46485751 -14.64930973 28.80470156 -14.69335938 30.14453125 C-14.79970981 33.42957815 -14.90173808 36.71470281 -15 40 C-18.3 40 -21.6 40 -25 40 C-25 26.8 -25 13.6 -25 0 C-21.7 0 -18.4 0 -15 0 C-14.67 0.66 -14.34 1.32 -14 2 C-13.175 1.484375 -12.35 0.96875 -11.5 0.4375 C-7.24170002 -1.31144463 -4.36924423 -1.36370662 0 0 Z " fill="#D29C2A" transform="translate(1227,218)"/>
<path d="M0 0 C26 0 26 0 33 4 C35.60184154 7.49622457 36.23178152 10.17851464 36 14.4375 C35.27684113 19.34168087 33.12863128 22.22959821 30 26 C31.1446875 26.3403125 31.1446875 26.3403125 32.3125 26.6875 C35.74256596 28.36264849 36.56979878 29.46213383 38 33 C38.69896158 37.61996554 38.43672527 41.03556504 36.5 45.3125 C34 48 34 48 26 52 C17.42 52 8.84 52 0 52 C0 34.84 0 17.68 0 0 Z M9 8 C9 12.62 9 17.24 9 22 C15.16090385 22.28434941 19.72777135 22.404981 25 19 C26.32548832 15.55663226 26.32548832 15.55663226 26 12 C24.23468433 9.3520265 23.06900421 9.0230014 20 8 C18.10529184 7.9314505 16.2083166 7.91519628 14.3125 7.9375 C12.559375 7.958125 10.80625 7.97875 9 8 Z M9 30 C9 34.62 9 39.24 9 44 C15.15945166 44.1687521 20.21374429 44.16984589 26 42 C28.30746414 40.12226736 28.30746414 40.12226736 28.25 37.0625 C28.23517754 33.82717213 28.23517754 33.82717213 26 31 C20.57364835 29.19121612 14.66885438 29.94799216 9 30 Z " fill="#D29C2A" transform="translate(1050,206)"/>
<path d="M0 0 C19 0 19 0 24 3 C27.05773456 7.3960743 26.78025384 12.8791107 26 18 C24.55288424 20.3597567 23.2811991 21.34613065 21 23 C21.99 23.86625 22.98 24.7325 24 25.625 C27.97704464 30.22404688 27.63995092 34.84747686 27.6015625 40.6953125 C26.89969071 44.55104976 25.76089442 46.25918481 23 49 C15.71989011 51.4267033 7.67390962 50 0 50 C0 33.5 0 17 0 0 Z " fill="#CD992D" transform="translate(127,18)"/>
<path d="M0 0 C0.99 0.7115625 0.99 0.7115625 2 1.4375 C2.33 0.4475 2.66 -0.5425 3 -1.5625 C5.97 -1.5625 8.94 -1.5625 12 -1.5625 C12.07436251 4.02422194 12.12870254 9.61065339 12.16479492 15.19775391 C12.17984691 17.09689353 12.20029316 18.99599859 12.22631836 20.89501953 C12.26285992 23.63062081 12.27976238 26.365761 12.29296875 29.1015625 C12.30845261 29.94554596 12.32393646 30.78952942 12.33988953 31.65908813 C12.34131063 36.67874092 11.78249713 40.08686728 9 44.4375 C3.96276552 49.0969419 -0.09880413 49.63895113 -6.75 49.6875 C-7.4409375 49.708125 -8.131875 49.72875 -8.84375 49.75 C-13.94852042 49.78838173 -17.42946746 48.71080153 -22 46.4375 C-21.47731534 43.67473823 -20.89130413 41.1114124 -20 38.4375 C-19.2265625 38.67726563 -18.453125 38.91703125 -17.65625 39.1640625 C-11.03339219 41.04928193 -6.44644932 42.1832099 0 39.4375 C2.27910405 36.58861994 2 35.21626009 2 31.4375 C1.401875 32.0975 0.80375 32.7575 0.1875 33.4375 C-4.48455771 36.36898719 -8.62709887 36.43818359 -14 35.4375 C-18.37841595 33.27200186 -21.00668185 30.06499196 -22.9375 25.625 C-24.97594527 18.97789586 -24.69550053 12.62536981 -21.98046875 6.2265625 C-19.95111035 2.5235898 -17.2732932 0.19459326 -13.6875 -1.9375 C-8.71345714 -3.09425415 -4.50080539 -2.34416947 0 0 Z M-11.3125 8.3125 C-14.18606197 11.93105952 -14.40224729 14.5792408 -14.34375 19.10546875 C-13.73997613 23.20152558 -12.14489682 24.77117444 -9 27.4375 C-6 28.35416667 -6 28.35416667 -3 27.4375 C0.80924074 24.22080782 2.83284985 22.17586156 3.3125 17.1875 C2.94713599 12.80313187 1.73973233 10.82187523 -1 7.4375 C-4.82181054 5.52659473 -7.99317122 5.62115234 -11.3125 8.3125 Z " fill="#D29C2A" transform="translate(730,219.5625)"/>
<path d="M0 0 C3.3 0 6.6 0 10 0 C10 17.82 10 35.64 10 54 C6.7 54 3.4 54 0 54 C-0.33 53.01 -0.66 52.02 -1 51 C-1.433125 51.474375 -1.86625 51.94875 -2.3125 52.4375 C-4.83934822 54.77717427 -6.92089027 54.99402945 -10.3125 55.25 C-15.56419255 54.89395305 -18.63200398 53.4439958 -22.25 49.625 C-27.13370535 42.29944198 -26.67783611 34.46447841 -26 26 C-24.79114528 21.28134548 -22.86988412 18.77103366 -19.25 15.5625 C-15.44007119 13.73080346 -12.24107409 12.75548479 -8 13 C-3 15 -3 15 -1 17 C-0.67 11.39 -0.34 5.78 0 0 Z M-16 27 C-17.68600001 32.05800004 -17.58520639 36.36758216 -15.8125 41.3125 C-13.73047219 44.39964469 -12.54194939 45.79251725 -9 47 C-4.2170235 45.66546122 -4.2170235 45.66546122 -0.8203125 42.24609375 C1.01042202 37.23336829 1.21250043 30.82049456 -0.91015625 25.8828125 C-2.9531051 23.13698414 -4.68847368 22.07139145 -8 21.3125 C-11.95386004 22.21859293 -13.46865536 23.8900623 -16 27 Z " fill="#D29C2A" transform="translate(461,204)"/>
<path d="M0 0 C3.3 0 6.6 0 10 0 C10.33 5.61 10.66 11.22 11 17 C11.99 16.01 12.98 15.02 14 14 C19.97703055 12.60535954 23.53896561 12.78762683 29 16 C33.15149411 21.12017607 33.12793571 27.13350122 33.09765625 33.4921875 C33.09443359 34.69101563 33.09121094 35.88984375 33.08789062 37.125 C33.07532227 38.98125 33.07532227 38.98125 33.0625 40.875 C33.05798828 42.13570312 33.05347656 43.39640625 33.04882812 44.6953125 C33.0370796 47.79692386 33.02065167 50.89843725 33 54 C29.7 54 26.4 54 23 54 C22.98541748 53.16750732 22.97083496 52.33501465 22.95581055 51.47729492 C22.8947137 48.38510347 22.82055444 45.29357918 22.73754883 42.2019043 C22.68798681 40.2070937 22.65348867 38.21192743 22.61914062 36.21679688 C22.58369141 34.96318359 22.54824219 33.70957031 22.51171875 32.41796875 C22.48553467 31.26063232 22.45935059 30.1032959 22.43237305 28.91088867 C22.22205433 26.02568139 22.22205433 26.02568139 20.69848633 24.1105957 C17.93757707 22.30530948 15.19473745 22.8191658 12 23 C10.8992924 26.3021228 10.79372928 28.94083279 10.68359375 32.41796875 C10.64169922 33.67158203 10.59980469 34.92519531 10.55664062 36.21679688 C10.51732422 37.52712891 10.47800781 38.83746094 10.4375 40.1875 C10.39429008 41.52279978 10.350675 42.85808652 10.30664062 44.19335938 C10.20043498 47.46213297 10.09839003 50.73098333 10 54 C6.7 54 3.4 54 0 54 C0 36.18 0 18.36 0 0 Z " fill="#D29C2A" transform="translate(866,204)"/>
<path d="M0 0 C26.7109375 0 26.7109375 0 31.64453125 4.5 C36.12590317 10.25534052 36.72880498 14.88094842 36 22 C34.73996751 26.63884572 32.4850895 30.04631928 28.6875 33 C22.7180124 36.39976532 15.59865023 35.2945826 9 35 C9 40.61 9 46.22 9 52 C6.03 52 3.06 52 0 52 C0 34.84 0 17.68 0 0 Z M9 8 C9 14.27 9 20.54 9 27 C17.95519753 27.46338381 17.95519753 27.46338381 24.8125 23.3125 C26.51833914 19.99060274 26.45252566 17.68485182 26 14 C23.55373949 9.98114344 22.65621589 9.16405397 18 8 C15.03 8 12.06 8 9 8 Z " fill="#D29C2A" transform="translate(583,206)"/>
<path d="M0 0 C19.93986637 0 19.93986637 0 24.7890625 4.75390625 C26.47900858 7.88848365 26.39768381 10.39504428 26.375 13.9375 C26.38273437 15.14277344 26.39046875 16.34804688 26.3984375 17.58984375 C25.80923839 22.63269495 24.0890326 25.08422259 20.25 28.3125 C17 30 17 30 10 30 C10 36.6 10 43.2 10 50 C6.7 50 3.4 50 0 50 C0 33.5 0 17 0 0 Z " fill="#CC992E" transform="translate(158,18)"/>
<path d="M0 0 C1.7634375 -0.01160156 1.7634375 -0.01160156 3.5625 -0.0234375 C7.34472929 0.41495726 9.76092086 1.40318102 13 3.375 C16.7437671 8.40972127 17.12562334 12.7378643 17.09765625 18.890625 C17.09443359 20.14101562 17.09121094 21.39140625 17.08789062 22.6796875 C17.07532227 24.63261719 17.07532227 24.63261719 17.0625 26.625 C17.05798828 27.94242188 17.05347656 29.25984375 17.04882812 30.6171875 C17.03704316 33.86983741 17.02059011 37.12239584 17 40.375 C14.03 40.375 11.06 40.375 8 40.375 C7.67 39.715 7.34 39.055 7 38.375 C6.175 38.87 5.35 39.365 4.5 39.875 C0.42519561 41.62134474 -2.63666339 42.17465531 -7 41.375 C-10.75212276 39.35997111 -12.63644095 37.92033858 -15 34.375 C-15.57430821 29.55677786 -15.58557505 24.93653346 -13.875 20.375 C-10.48473902 16.75872162 -7.72203044 15.46930167 -2.71875 15.1953125 C0.52679408 15.18825697 3.75727035 15.24509837 7 15.375 C5.88145414 11.64885847 5.88145414 11.64885847 3 9.375 C-1.78389142 9.18739641 -6.28022492 9.60442448 -11 10.375 C-11.66 8.065 -12.32 5.755 -13 3.375 C-8.48580776 0.77383435 -5.19838471 -0.0341999 0 0 Z M-4.8046875 23.66015625 C-6.38211631 25.53385071 -6.38211631 25.53385071 -5.6875 29.0625 C-5.460625 30.155625 -5.23375 31.24875 -5 32.375 C-2.26814404 33.67559064 -2.26814404 33.67559064 1 34.375 C4.56446721 32.83579825 5.82847773 31.63228341 8 28.375 C8.16713569 25.74968476 8.16713569 25.74968476 8 23.375 C5.67313547 22.21156773 4.15278587 22.17604012 1.5625 22.125 C0.38880859 22.08632812 0.38880859 22.08632812 -0.80859375 22.046875 C-3.0643579 22.21545635 -3.0643579 22.21545635 -4.8046875 23.66015625 Z " fill="#D29C2A" transform="translate(1176,217.625)"/>
<path d="M0 0 C3.43663909 2.81980643 5.14005733 5.81614214 6.4375 10 C6.91407194 15.01180911 6.81555183 19.97150321 6.6875 25 C6.66739985 26.36065073 6.64915529 27.7213302 6.6328125 29.08203125 C6.5859085 32.388763 6.52027725 35.69400416 6.4375 39 C3.4675 39 0.4975 39 -2.5625 39 C-2.8925 38.34 -3.2225 37.68 -3.5625 37 C-4.3875 37.495 -5.2125 37.99 -6.0625 38.5 C-10.14258598 40.24860828 -13.19434747 40.79183641 -17.5625 40 C-21.61376432 37.89934443 -23.89240997 36.23241994 -25.5625 32 C-26.12566446 27.50199813 -26.04599065 23.33670944 -24.5 19.0625 C-21.26915295 15.62321121 -17.85298568 14.21243965 -13.24609375 13.78515625 C-9.49317895 13.72951171 -6.18677588 13.98553 -2.5625 15 C-4.25057908 10.76915097 -4.25057908 10.76915097 -7.5625 8 C-12.03923252 7.82781798 -16.16848974 8.14263214 -20.5625 9 C-22.7144437 5.77208445 -22.76336443 4.71599191 -22.5625 1 C-15.21267024 -1.7783242 -7.58681352 -2.12963187 0 0 Z M-16.5625 24 C-16.2325 26.31 -15.9025 28.62 -15.5625 31 C-12.83064404 32.30059064 -12.83064404 32.30059064 -9.5625 33 C-5.99803279 31.46079825 -4.73402227 30.25728341 -2.5625 27 C-2.39536431 24.37468476 -2.39536431 24.37468476 -2.5625 22 C-7.41103256 19.57573372 -12.78338276 20.22088276 -16.5625 24 Z " fill="#D29C2A" transform="translate(931.5625,219)"/>
<path d="M0 0 C3.43663909 2.81980643 5.14005733 5.81614214 6.4375 10 C6.91407194 15.01180911 6.81555183 19.97150321 6.6875 25 C6.66739985 26.36065073 6.64915529 27.7213302 6.6328125 29.08203125 C6.5859085 32.388763 6.52027725 35.69400416 6.4375 39 C3.4675 39 0.4975 39 -2.5625 39 C-2.8925 38.34 -3.2225 37.68 -3.5625 37 C-4.3875 37.495 -5.2125 37.99 -6.0625 38.5 C-10.14258598 40.24860828 -13.19434747 40.79183641 -17.5625 40 C-21.61376432 37.89934443 -23.89240997 36.23241994 -25.5625 32 C-26.12566446 27.50199813 -26.04599065 23.33670944 -24.5 19.0625 C-21.26915295 15.62321121 -17.85298568 14.21243965 -13.24609375 13.78515625 C-9.49317895 13.72951171 -6.18677588 13.98553 -2.5625 15 C-4.25057908 10.76915097 -4.25057908 10.76915097 -7.5625 8 C-12.03923252 7.82781798 -16.16848974 8.14263214 -20.5625 9 C-22.32712683 5.91190305 -22.5625 4.76687864 -22.5625 1 C-15.21267024 -1.7783242 -7.58681352 -2.12963187 0 0 Z M-16.5625 24 C-16.2325 26.31 -15.9025 28.62 -15.5625 31 C-12.83064404 32.30059064 -12.83064404 32.30059064 -9.5625 33 C-5.99803279 31.46079825 -4.73402227 30.25728341 -2.5625 27 C-2.39536431 24.37468476 -2.39536431 24.37468476 -2.5625 22 C-7.41103256 19.57573372 -12.78338276 20.22088276 -16.5625 24 Z " fill="#D29C2A" transform="translate(420.5625,219)"/>
<path d="M0 0 C3.72161895 2.24984521 5.24110737 5.41778362 6.86328125 9.3125 C7.20385742 12.74755859 7.20385742 12.74755859 7.15625 16.4609375 C7.15200516 17.11832916 7.14776031 17.77572083 7.14338684 18.45303345 C7.12673102 20.53162391 7.08910745 22.60920774 7.05078125 24.6875 C7.0357173 26.10545464 7.0220319 27.52342464 7.00976562 28.94140625 C6.97687163 32.3987589 6.9251829 35.85553103 6.86328125 39.3125 C3.89328125 39.3125 0.92328125 39.3125 -2.13671875 39.3125 C-2.46671875 38.6525 -2.79671875 37.9925 -3.13671875 37.3125 C-3.79671875 37.8075 -4.45671875 38.3025 -5.13671875 38.8125 C-8.88887396 40.6885776 -12.05632301 40.88855587 -16.13671875 40.3125 C-20.01630598 38.99490434 -21.66442927 37.98944825 -24.01171875 34.625 C-25.70961611 29.62563554 -26.09888463 25.47737323 -23.88671875 20.5 C-21.28592307 17.2490054 -19.0860003 15.62892718 -15.13671875 14.3125 C-13.47213202 14.21941456 -11.80389878 14.18253815 -10.13671875 14.1875 C-9.27046875 14.18492187 -8.40421875 14.18234375 -7.51171875 14.1796875 C-5.13671875 14.3125 -5.13671875 14.3125 -2.13671875 15.3125 C-3.82479783 11.08165097 -3.82479783 11.08165097 -7.13671875 8.3125 C-9.3481073 8.40061445 -11.5571406 8.5554784 -13.76171875 8.75 C-14.95023438 8.85183594 -16.13875 8.95367187 -17.36328125 9.05859375 C-18.27851562 9.14238281 -19.19375 9.22617188 -20.13671875 9.3125 C-21.90134558 6.22440305 -22.13671875 5.07937864 -22.13671875 1.3125 C-15.28112118 -1.30015151 -7.11672376 -2.28984165 0 0 Z M-14.69921875 23 C-16.36219061 25.22140267 -16.36219061 25.22140267 -16.13671875 27.875 C-14.92049024 30.839557 -14.00102926 31.88034475 -11.13671875 33.3125 C-7.91859907 33.23204701 -6.42385216 32.52202979 -3.82421875 30.625 C-1.68118584 27.68825119 -1.81355307 25.86732252 -2.13671875 22.3125 C-6.3903523 20.18568322 -10.84946124 20.46479384 -14.69921875 23 Z " fill="#D29C2A" transform="translate(1119.13671875,218.6875)"/>
<path d="M0 0 C3.72161895 2.24984521 5.24110737 5.41778362 6.86328125 9.3125 C7.20385742 12.74755859 7.20385742 12.74755859 7.15625 16.4609375 C7.15200516 17.11832916 7.14776031 17.77572083 7.14338684 18.45303345 C7.12673102 20.53162391 7.08910745 22.60920774 7.05078125 24.6875 C7.0357173 26.10545464 7.0220319 27.52342464 7.00976562 28.94140625 C6.97687163 32.3987589 6.9251829 35.85553103 6.86328125 39.3125 C3.89328125 39.3125 0.92328125 39.3125 -2.13671875 39.3125 C-2.46671875 38.6525 -2.79671875 37.9925 -3.13671875 37.3125 C-3.79671875 37.8075 -4.45671875 38.3025 -5.13671875 38.8125 C-8.88887396 40.6885776 -12.05632301 40.88855587 -16.13671875 40.3125 C-20.01630598 38.99490434 -21.66442927 37.98944825 -24.01171875 34.625 C-25.70961611 29.62563554 -26.09888463 25.47737323 -23.88671875 20.5 C-21.28592307 17.2490054 -19.0860003 15.62892718 -15.13671875 14.3125 C-13.47213202 14.21941456 -11.80389878 14.18253815 -10.13671875 14.1875 C-9.27046875 14.18492187 -8.40421875 14.18234375 -7.51171875 14.1796875 C-5.13671875 14.3125 -5.13671875 14.3125 -2.13671875 15.3125 C-3.82479783 11.08165097 -3.82479783 11.08165097 -7.13671875 8.3125 C-9.3481073 8.40061445 -11.5571406 8.5554784 -13.76171875 8.75 C-14.95023438 8.85183594 -16.13875 8.95367187 -17.36328125 9.05859375 C-18.27851562 9.14238281 -19.19375 9.22617188 -20.13671875 9.3125 C-21.90134558 6.22440305 -22.13671875 5.07937864 -22.13671875 1.3125 C-15.28112118 -1.30015151 -7.11672376 -2.28984165 0 0 Z M-14.69921875 23 C-16.36219061 25.22140267 -16.36219061 25.22140267 -16.13671875 27.875 C-14.92049024 30.839557 -14.00102926 31.88034475 -11.13671875 33.3125 C-7.91859907 33.23204701 -6.42385216 32.52202979 -3.82421875 30.625 C-1.68118584 27.68825119 -1.81355307 25.86732252 -2.13671875 22.3125 C-6.3903523 20.18568322 -10.84946124 20.46479384 -14.69921875 23 Z " fill="#D29C2A" transform="translate(970.13671875,218.6875)"/>
<path d="M0 0 C4.18349281 3.33080638 6.50876511 6.61509099 7.96484375 11.83984375 C7.96484375 15.46984375 7.96484375 19.09984375 7.96484375 22.83984375 C0.04484375 22.83984375 -7.87515625 22.83984375 -16.03515625 22.83984375 C-13.73028903 28.46778637 -13.73028903 28.46778637 -11.28515625 30.27734375 C-6.31409654 31.52010868 -1.57348087 29.90271858 2.96484375 27.83984375 C4.28484375 29.48984375 5.60484375 31.13984375 6.96484375 32.83984375 C0.71422031 39.43772405 0.71422031 39.43772405 -4.33203125 40.17578125 C-10.35373969 40.27166833 -15.21759338 39.68318835 -20.03515625 35.83984375 C-24.86914383 30.07994313 -26.40749854 24.50349024 -26.23828125 17.015625 C-25.52988335 9.42759365 -22.89576744 5.00127734 -17.0703125 0.15234375 C-11.95128387 -3.14898757 -5.2658445 -3.00183458 0 0 Z M-14.03515625 8.83984375 C-16.40495638 11.79361873 -16.40495638 11.79361873 -16.03515625 15.83984375 C-11.08515625 15.83984375 -6.13515625 15.83984375 -1.03515625 15.83984375 C-2.21440637 9.05680633 -2.21440637 9.05680633 -5.59765625 6.90234375 C-9.48264517 5.20888704 -10.5141393 6.52112527 -14.03515625 8.83984375 Z " fill="#D29C2A" transform="translate(650.03515625,219.16015625)"/>
<path d="M0 0 C3.72161895 2.24984521 5.24110737 5.41778362 6.86328125 9.3125 C7.20385742 12.74755859 7.20385742 12.74755859 7.15625 16.4609375 C7.15200516 17.11832916 7.14776031 17.77572083 7.14338684 18.45303345 C7.12673102 20.53162391 7.08910745 22.60920774 7.05078125 24.6875 C7.0357173 26.10545464 7.0220319 27.52342464 7.00976562 28.94140625 C6.97687163 32.3987589 6.9251829 35.85553103 6.86328125 39.3125 C3.89328125 39.3125 0.92328125 39.3125 -2.13671875 39.3125 C-2.46671875 38.6525 -2.79671875 37.9925 -3.13671875 37.3125 C-3.79671875 37.8075 -4.45671875 38.3025 -5.13671875 38.8125 C-8.88543957 40.68686041 -12.05903613 40.8961683 -16.13671875 40.3125 C-19.62150264 39.06323785 -21.56836486 37.95663441 -24.01171875 35.1875 C-25.97288964 30.17561883 -26.03866698 25.38698094 -23.88671875 20.4375 C-21.26007167 17.24799997 -19.05952279 15.62010135 -15.13671875 14.3125 C-13.65985764 14.22002619 -12.17896374 14.18250929 -10.69921875 14.1875 C-9.55646484 14.18363281 -9.55646484 14.18363281 -8.390625 14.1796875 C-6.18356016 14.30973985 -4.25702599 14.70393801 -2.13671875 15.3125 C-3.82479783 11.08165097 -3.82479783 11.08165097 -7.13671875 8.3125 C-9.3481073 8.40061445 -11.5571406 8.5554784 -13.76171875 8.75 C-14.95023438 8.85183594 -16.13875 8.95367187 -17.36328125 9.05859375 C-18.27851562 9.14238281 -19.19375 9.22617188 -20.13671875 9.3125 C-21.90134558 6.22440305 -22.13671875 5.07937864 -22.13671875 1.3125 C-15.28112118 -1.30015151 -7.11672376 -2.28984165 0 0 Z M-14.69921875 22.9375 C-16.45351067 25.31593537 -16.45351067 25.31593537 -15.88671875 28.5625 C-15.63921875 29.47 -15.39171875 30.3775 -15.13671875 31.3125 C-12.45142533 32.62607916 -12.45142533 32.62607916 -9.13671875 33.3125 C-4.81055595 31.78337921 -4.81055595 31.78337921 -2.13671875 28.3125 C-2.09672675 26.31289988 -2.09325076 24.31202758 -2.13671875 22.3125 C-6.3646229 20.19854793 -10.8281279 20.4826619 -14.69921875 22.9375 Z " fill="#D29C2A" transform="translate(850.13671875,218.6875)"/>
<path d="M0 0 C3.33140263 2.06429483 5.17482584 4.82001058 6.86328125 8.2734375 C7.20385742 11.68676758 7.20385742 11.68676758 7.15625 15.54296875 C7.15200516 16.22397141 7.14776031 16.90497406 7.14338684 17.60661316 C7.12668735 19.76680209 7.08905437 21.92603392 7.05078125 24.0859375 C7.03572299 25.55662708 7.02203659 27.02733139 7.00976562 28.49804688 C6.97681339 32.09015107 6.92509298 35.68170076 6.86328125 39.2734375 C3.89328125 39.2734375 0.92328125 39.2734375 -2.13671875 39.2734375 C-2.46671875 38.6134375 -2.79671875 37.9534375 -3.13671875 37.2734375 C-3.79671875 37.7684375 -4.45671875 38.2634375 -5.13671875 38.7734375 C-8.9641975 40.68717687 -11.93209139 40.90455804 -16.13671875 40.2734375 C-19.80603658 38.64262958 -22.22014355 36.81910161 -24.13671875 33.2734375 C-25.52091498 27.24229681 -25.28965951 23.81826435 -22.13671875 18.2734375 C-18.45652989 14.82326044 -15.07651299 14.13373573 -10.13671875 14.1484375 C-9.27046875 14.14585937 -8.40421875 14.14328125 -7.51171875 14.140625 C-5.13671875 14.2734375 -5.13671875 14.2734375 -2.13671875 15.2734375 C-2.46671875 13.2934375 -2.79671875 11.3134375 -3.13671875 9.2734375 C-9.04819315 8.50030705 -14.26817795 8.12524473 -20.13671875 9.2734375 C-20.79671875 6.9634375 -21.45671875 4.6534375 -22.13671875 2.2734375 C-15.46554707 -1.56045232 -7.41839328 -2.52252495 0 0 Z M-14.13671875 22.3984375 C-15.63358829 25.20506789 -15.5920719 27.15101593 -15.13671875 30.2734375 C-13.61777069 32.37107915 -13.61777069 32.37107915 -11.13671875 33.2734375 C-8.02639796 33.14648563 -5.93593832 32.75296924 -3.26171875 31.1484375 C-1.52480275 28.2535775 -1.95041303 25.56483853 -2.13671875 22.2734375 C-5.82786878 20.42786249 -10.54463174 20.37788856 -14.13671875 22.3984375 Z " fill="#D29C2A" transform="translate(503.13671875,218.7265625)"/>
<path d="M0 0 C2.97 0 5.94 0 9 0 C9.01981934 0.83249268 9.03963867 1.66498535 9.06005859 2.52270508 C9.13820742 5.614765 9.22490206 8.70643383 9.31738281 11.7980957 C9.37444092 13.7929536 9.42164442 15.7880854 9.46875 17.78320312 C9.50742187 19.03681641 9.54609375 20.29042969 9.5859375 21.58203125 C9.6173584 22.73936768 9.6487793 23.8967041 9.68115234 25.08911133 C9.79471033 28.19127028 9.79471033 28.19127028 12 31 C15.5 31.5 15.5 31.5 19 31 C21.35709642 27.46435537 21.30009735 25.77974745 21.4140625 21.58203125 C21.45273437 20.32841797 21.49140625 19.07480469 21.53125 17.78320312 C21.5621875 16.47287109 21.593125 15.16253906 21.625 13.8125 C21.66319338 12.4771884 21.70224591 11.14190108 21.7421875 9.80664062 C21.83659153 6.53790112 21.92217017 3.26916936 22 0 C25.3 0 28.6 0 32 0 C32 13.2 32 26.4 32 40 C28.7 40 25.4 40 22 40 C21.67 39.34 21.34 38.68 21 38 C20.34 38.495 19.68 38.99 19 39.5 C15.25972687 41.37013657 12.06821473 41.7244766 8 41 C3.98094916 38.91604771 1.54900814 37.2644542 0 33 C-0.16786322 30.42465327 -0.23317374 27.96245607 -0.1953125 25.390625 C-0.1924826 24.66381531 -0.18965271 23.93700562 -0.18673706 23.18817139 C-0.17557523 20.87527749 -0.15047851 18.56277612 -0.125 16.25 C-0.11496501 14.67839102 -0.10584006 13.10677596 -0.09765625 11.53515625 C-0.07564904 7.68995378 -0.04114715 3.84504336 0 0 Z " fill="#D29C2A" transform="translate(752,218)"/>
<path d="M0 0 C3.1786241 2.5699514 4.70728109 4.12184327 6 8 C6.0845387 10.4410776 6.11605786 12.85259213 6.09765625 15.29296875 C6.0962413 15.99899734 6.09482635 16.70502594 6.09336853 17.43244934 C6.08777764 19.68417626 6.07522688 21.93580321 6.0625 24.1875 C6.05748382 25.71549335 6.05292112 27.24348827 6.04882812 28.77148438 C6.0378112 32.51436135 6.02055287 36.25716373 6 40 C3.03 40 0.06 40 -3 40 C-3.02505615 39.20303711 -3.0501123 38.40607422 -3.07592773 37.58496094 C-3.19198789 33.97314778 -3.31466931 30.36158898 -3.4375 26.75 C-3.47681641 25.49574219 -3.51613281 24.24148437 -3.55664062 22.94921875 C-3.59853516 21.74394531 -3.64042969 20.53867188 -3.68359375 19.296875 C-3.72025146 18.18666992 -3.75690918 17.07646484 -3.79467773 15.93261719 C-3.96710904 13.46978151 -4.29595439 11.35517035 -5 9 C-9.56615726 8.56223764 -9.56615726 8.56223764 -13.69848633 10.1105957 C-15.59501423 12.86378074 -15.43660095 15.09776187 -15.51171875 18.41796875 C-15.54716797 19.67158203 -15.58261719 20.92519531 -15.61914062 22.21679688 C-15.65297852 24.18229492 -15.65297852 24.18229492 -15.6875 26.1875 C-15.72067666 27.52282013 -15.75516666 28.85810832 -15.79101562 30.19335938 C-15.87362057 33.46215504 -15.94273229 36.73067812 -16 40 C-19.3 40 -22.6 40 -26 40 C-26 26.8 -26 13.6 -26 0 C-22.7 0 -19.4 0 -16 0 C-15.67 0.66 -15.34 1.32 -15 2 C-13.515 1.2265625 -13.515 1.2265625 -12 0.4375 C-7.82308531 -1.32965622 -4.30373401 -1.49773553 0 0 Z " fill="#D29C2A" transform="translate(692,218)"/>
<path d="M0 0 C4.19253703 3.18997383 5.6485521 5.99416493 7 11 C7.22705078 14.34326172 7.22705078 14.34326172 7.1953125 17.9296875 C7.18886719 19.21875 7.18242188 20.5078125 7.17578125 21.8359375 C7.15907463 23.18229442 7.14214479 24.52864859 7.125 25.875 C7.11495664 27.24478517 7.10583317 28.61457742 7.09765625 29.984375 C7.07414412 33.32309756 7.0412793 36.66145761 7 40 C3.7 40 0.4 40 -3 40 C-3.01458252 39.16750732 -3.02916504 38.33501465 -3.04418945 37.47729492 C-3.1052863 34.38510347 -3.17944556 31.29357918 -3.26245117 28.2019043 C-3.31201319 26.2070937 -3.34651133 24.21192743 -3.38085938 22.21679688 C-3.4340332 20.33637695 -3.4340332 20.33637695 -3.48828125 18.41796875 C-3.51446533 17.26063232 -3.54064941 16.1032959 -3.56762695 14.91088867 C-3.76665313 12.01212823 -3.76665313 12.01212823 -5.37573242 10.1262207 C-7.73898582 8.48760836 -9.1953297 8.5091827 -12 9 C-15.19972724 12.21848409 -15.40714301 14.86286375 -15.51171875 19.296875 C-15.54716797 20.50214844 -15.58261719 21.70742187 -15.61914062 22.94921875 C-15.65297852 24.83060547 -15.65297852 24.83060547 -15.6875 26.75 C-15.72166016 28.01972656 -15.75582031 29.28945312 -15.79101562 30.59765625 C-15.87349001 33.73168274 -15.94264484 36.86542955 -16 40 C-18.97 40 -21.94 40 -25 40 C-25 26.8 -25 13.6 -25 0 C-22.03 0 -19.06 0 -16 0 C-15.67 0.99 -15.34 1.98 -15 3 C-14.401875 2.525625 -13.80375 2.05125 -13.1875 1.5625 C-8.93495656 -1.47503103 -4.89355249 -1.38586936 0 0 Z " fill="#D29C2A" transform="translate(1012,218)"/>
<path d="M0 0 C4.04491175 2.46212019 5.60507423 4.53677971 7 9 C7.22705078 12.41333008 7.22705078 12.41333008 7.1953125 16.26953125 C7.1924826 16.95053391 7.18965271 17.63153656 7.18673706 18.33317566 C7.17560525 20.49313455 7.15051457 22.65266794 7.125 24.8125 C7.11496111 26.28319711 7.10583685 27.75390076 7.09765625 29.22460938 C7.07568913 32.81654286 7.0412082 36.40822985 7 40 C4.03 40 1.06 40 -2 40 C-2.01981934 39.26885986 -2.03963867 38.53771973 -2.06005859 37.78442383 C-2.15552914 34.46009731 -2.26511966 31.13638014 -2.375 27.8125 C-2.4059375 26.66201172 -2.436875 25.51152344 -2.46875 24.32617188 C-2.50742187 23.21435547 -2.54609375 22.10253906 -2.5859375 20.95703125 C-2.63306885 19.42526245 -2.63306885 19.42526245 -2.68115234 17.86254883 C-3.0391108 14.64887128 -3.63367759 11.36632241 -6 9 C-9.48618881 9.09308537 -9.48618881 9.09308537 -13 10 C-15.27725232 13.1794196 -15.30153883 16.25232039 -15.4140625 20.078125 C-15.47207031 21.81835938 -15.47207031 21.81835938 -15.53125 23.59375 C-15.5621875 24.8003125 -15.593125 26.006875 -15.625 27.25 C-15.68300781 29.08304688 -15.68300781 29.08304688 -15.7421875 30.953125 C-15.83642108 33.9685994 -15.92203455 36.98406828 -16 40 C-18.97 40 -21.94 40 -25 40 C-25 26.8 -25 13.6 -25 0 C-22.03 0 -19.06 0 -16 0 C-15.67 0.99 -15.34 1.98 -15 3 C-14.401875 2.525625 -13.80375 2.05125 -13.1875 1.5625 C-8.89465506 -1.50381781 -4.94219214 -1.24520075 0 0 Z " fill="#D29C2A" transform="translate(545,218)"/>
<path d="M0 0 C2.3125 1.625 2.3125 1.625 3.3125 3.625 C1.3325 6.595 1.3325 6.595 -0.6875 9.625 C-1.37457031 9.39683594 -2.06164062 9.16867188 -2.76953125 8.93359375 C-3.67058594 8.64613281 -4.57164062 8.35867187 -5.5 8.0625 C-6.83998047 7.62744141 -6.83998047 7.62744141 -8.20703125 7.18359375 C-10.79965139 6.37520444 -10.79965139 6.37520444 -13.6875 7.625 C-13.67483272 9.52894327 -13.67483272 9.52894327 -12.6875 11.625 C-9.79836322 13.51118452 -9.79836322 13.51118452 -6.3125 15.125 C1.29371343 18.83534801 1.29371343 18.83534801 3.3125 22.625 C4.1687083 27.36885682 3.99656186 31.40889003 1.625 35.625 C-2.76740702 39.42383851 -6.67365234 40.02079752 -12.33984375 39.87890625 C-17.21664548 39.35146513 -21.34030979 38.0984893 -24.6875 34.4375 C-25.0175 33.839375 -25.3475 33.24125 -25.6875 32.625 C-24.3675 30.975 -23.0475 29.325 -21.6875 27.625 C-19.53246721 28.08679274 -17.83242928 28.53700722 -15.9375 29.6875 C-12.50483635 31.11777652 -9.38732016 30.74832734 -5.6875 30.625 C-5.73862509 28.20816968 -5.73862509 28.20816968 -6.6875 25.625 C-9.26445467 23.92251788 -9.26445467 23.92251788 -12.4375 22.6875 C-17.64069009 20.25934463 -20.81916852 18.64458009 -23.6875 13.625 C-24.39070446 9.24950559 -24.01017751 7.23578243 -21.9375 3.3125 C-16.46276691 -3.22676453 -7.56151591 -2.81954831 0 0 Z " fill="#D29C2A" transform="translate(815.6875,219.375)"/>
<path d="M0 0 C2.97 0 5.94 0 9 0 C9 3.3 9 6.6 9 10 C11.97 10 14.94 10 18 10 C18 12.64 18 15.28 18 18 C15.03 18 12.06 18 9 18 C9.33 25.92 9.66 33.84 10 42 C12.64 41.67 15.28 41.34 18 41 C18 43.64 18 46.28 18 49 C14.34387956 51.33991708 11.26792624 51.37437949 7 51 C3.4613006 49.34860695 2.18929847 48.28394771 0 45 C-0.22705078 42.1809082 -0.22705078 42.1809082 -0.1953125 38.80078125 C-0.18886719 37.59228516 -0.18242188 36.38378906 -0.17578125 35.13867188 C-0.15902344 33.87603516 -0.14226562 32.61339844 -0.125 31.3125 C-0.11597656 30.03826172 -0.10695313 28.76402344 -0.09765625 27.45117188 C-0.07405641 24.30059373 -0.04113194 21.15039017 0 18 C-1.32 18 -2.64 18 -4 18 C-4 15.36 -4 12.72 -4 10 C-2.68 10 -1.36 10 0 10 C0 6.7 0 3.4 0 0 Z " fill="#D29C2A" transform="translate(1137,208)"/>
<path d="M0 0 C13 0 13 0 18 3 C19 4 19 4 19.1875 7.3125 C19.01798052 10.64638318 18.75557129 12.25691987 17 15 C16.34 15 15.68 15 15 15 C15 15.66 15 16.32 15 17 C15.9590625 17.433125 15.9590625 17.433125 16.9375 17.875 C19 19 19 19 20 21 C20.55910987 26.68428373 20.55910987 26.68428373 20 29 C18.35 30.65 16.7 32.3 15 34 C10.05 34 5.1 34 0 34 C0 22.78 0 11.56 0 0 Z " fill="#CE9A2C" transform="translate(188,34)"/>
<path d="M0 0 C2.64 0 5.28 0 8 0 C8.99 5.28 9.98 10.56 11 16 C11.33 16 11.66 16 12 16 C12.99 10.72 13.98 5.44 15 0 C17.64 0 20.28 0 23 0 C23 11.22 23 22.44 23 34 C20.69 34 18.38 34 16 34 C15.67 28.39 15.34 22.78 15 17 C14.01 22.61 13.02 28.22 12 34 C10.35 34 8.7 34 7 34 C6.01 29.71 5.02 25.42 4 21 C3.67 25.29 3.34 29.58 3 34 C2.01 34 1.02 34 0 34 C0 22.78 0 11.56 0 0 Z " fill="#CA982F" transform="translate(269,34)"/>
<path d="M0 0 C6.66537328 1.85804653 6.66537328 1.85804653 9.14453125 3.95703125 C12.24981921 6.03829377 15.45556789 6.23926397 19.0859375 6.61328125 C20.13201172 6.73606445 20.13201172 6.73606445 21.19921875 6.86132812 C22.91020526 7.06055258 24.62293787 7.24468054 26.3359375 7.42578125 C26.71812517 9.08192782 27.04988852 10.75035149 27.3359375 12.42578125 C26.3359375 13.42578125 26.3359375 13.42578125 23.5234375 13.73828125 C17.86482912 13.70276697 12.57941268 11.3544158 7.3359375 9.42578125 C7.1090625 10.51890625 6.8821875 11.61203125 6.6484375 12.73828125 C5.3359375 16.42578125 5.3359375 16.42578125 3.0859375 18.23828125 C1.7246875 18.82609375 1.7246875 18.82609375 0.3359375 19.42578125 C-0.5509375 19.81765625 -1.4378125 20.20953125 -2.3515625 20.61328125 C-6.82217143 21.7098457 -11.0853286 21.58866111 -15.6640625 21.42578125 C-13.76624425 18.92721477 -12.68708631 18.43094276 -9.5625 17.73046875 C-8.39976563 17.58867188 -7.23703125 17.446875 -6.0390625 17.30078125 C-2.02950114 17.12790468 -2.02950114 17.12790468 1.3359375 15.42578125 C1.59671573 12.42683164 1.77325326 10.2457483 0.3359375 7.55078125 C-2.91719934 5.72089178 -5.97796359 6.2444977 -9.6640625 6.42578125 C-9.1484375 6.81765625 -8.6328125 7.20953125 -8.1015625 7.61328125 C-6.6640625 9.42578125 -6.6640625 9.42578125 -6.8515625 12.05078125 C-7.6640625 14.42578125 -7.6640625 14.42578125 -9.6640625 15.42578125 C-15.20252404 15.65655048 -15.20252404 15.65655048 -17.6640625 14.42578125 C-17.6640625 13.76578125 -17.6640625 13.10578125 -17.6640625 12.42578125 C-18.5921875 13.41578125 -18.5921875 13.41578125 -19.5390625 14.42578125 C-21.6640625 16.42578125 -21.6640625 16.42578125 -23.6640625 16.42578125 C-24.3240625 14.77578125 -24.9840625 13.12578125 -25.6640625 11.42578125 C-28.3040625 11.09578125 -30.9440625 10.76578125 -33.6640625 10.42578125 C-31.91487443 7.36789408 -30.85227316 6.49445271 -27.484375 5.265625 C-26.26492187 4.96785156 -25.04546875 4.67007813 -23.7890625 4.36328125 C-3.28556361 -0.70817867 -3.28556361 -0.70817867 0 0 Z " fill="#30549C" transform="translate(113.6640625,79.57421875)"/>
<path d="M0 0 C8.6755421 -0.49495961 16.17244253 0.15781641 24.52124023 2.40136719 C37.03369418 5.73555637 49.44638361 6.37140239 62.3125 6.625 C63.93947142 6.66329313 65.56642502 6.70235087 67.19335938 6.7421875 C71.12875714 6.83691647 75.0642488 6.92138085 79 7 C75.25 11.875 75.25 11.875 73 13 C47.69103042 14.87485519 23.38468666 10.442 0 1 C0 0.67 0 0.34 0 0 Z " fill="#31549C" transform="translate(167,130)"/>
<path d="M0 0 C2.31 0 4.62 0 7 0 C8.724805 6.5689382 10.30802382 13.16213965 11.6875 19.8125 C11.93886719 21.01519531 12.19023437 22.21789062 12.44921875 23.45703125 C13.00490219 27.03153394 13.09709818 30.3888725 13 34 C10.69 34 8.38 34 6 34 C5.67 32.02 5.34 30.04 5 28 C2.36 27.67 -0.28 27.34 -3 27 C-3 28.98 -3 30.96 -3 33 C-4.485 33.495 -4.485 33.495 -6 34 C-5.43223344 26.3055241 -4.07139916 18.90832778 -2.4375 11.375 C-2.20353516 10.27542969 -1.96957031 9.17585938 -1.72851562 8.04296875 C-1.15712206 5.36091733 -0.58087187 2.6800116 0 0 Z " fill="#C79731" transform="translate(215,34)"/>
<path d="M0 0 C2.31 0 4.62 0 7 0 C7.81903545 3.97784986 8.62902594 7.95749132 9.4375 11.9375 C9.66759766 13.05447266 9.89769531 14.17144531 10.13476562 15.32226562 C11.39400752 21.54547556 12.41662327 27.67673269 13 34 C10.69 34 8.38 34 6 34 C5.67 31.69 5.34 29.38 5 27 C2.36 27 -0.28 27 -3 27 C-3.33 29.31 -3.66 31.62 -4 34 C-4.99 34 -5.98 34 -7 34 C-5.64321789 26.22680917 -4.07511498 18.51738154 -2.375 10.8125 C-2.03082031 9.24145508 -2.03082031 9.24145508 -1.6796875 7.63867188 C-1.12152634 5.09206157 -0.56160856 2.54585183 0 0 Z " fill="#C89730" transform="translate(254,34)"/>
<path d="M0 0 C6.6 0 13.2 0 20 0 C20 1.32 20 2.64 20 4 C18.02 4 16.04 4 14 4 C14 13.9 14 23.8 14 34 C11.36 34 8.72 34 6 34 C6 23.77 6 13.54 6 3 C4.02 3 2.04 3 0 3 C0 2.01 0 1.02 0 0 Z " fill="#C89730" transform="translate(228,34)"/>
<path d="M0 0 C1.65 0 3.3 0 5 0 C7.93127474 3.03235317 8.23576891 5.9441377 8.375 10 C8.23576891 14.0558623 7.93127474 16.96764683 5 20 C3.35 20 1.7 20 0 20 C0 13.4 0 6.8 0 0 Z " fill="#32549A" transform="translate(137,44)"/>
<path d="M0 0 C2.475 0.495 2.475 0.495 5 1 C7.22698735 4.34048103 7.2711921 5.53285581 7.25 9.4375 C7.25515625 10.38496094 7.2603125 11.33242188 7.265625 12.30859375 C6.98728268 15.12885642 6.71090626 16.7376872 5 19 C3.35 19.33 1.7 19.66 0 20 C0 13.4 0 6.8 0 0 Z " fill="#30539C" transform="translate(168,23)"/>
<path d="M0 0 C2.475 0.495 2.475 0.495 5 1 C7.13749925 4.20624887 7.29574999 5.22458103 7.3125 8.9375 C7.33763672 10.21947266 7.33763672 10.21947266 7.36328125 11.52734375 C6.92289573 14.5248065 6.16648262 15.89220314 4 18 C2.68 18 1.36 18 0 18 C0 12.06 0 6.12 0 0 Z " fill="#355698" transform="translate(137,22)"/>
<path d="M0 0 C0.55171875 0.48082031 1.1034375 0.96164062 1.671875 1.45703125 C4.36143493 3.23954161 6.05821418 3.47751409 9.25 3.6875 C10.14203125 3.75324219 11.0340625 3.81898438 11.953125 3.88671875 C12.62859375 3.92410156 13.3040625 3.96148437 14 4 C14 4.33 14 4.66 14 5 C-14.38 5 -42.76 5 -72 5 C-72 4.67 -72 4.34 -72 4 C-36.36 3.505 -36.36 3.505 0 3 C0 2.01 0 1.02 0 0 Z " fill="#D39B35" transform="translate(252,300)"/>
<path d="M0 0 C2.475 0.495 2.475 0.495 5 1 C6.50934217 4.01868434 6.17510672 6.67297229 6 10 C5.01 11.485 5.01 11.485 4 13 C2.68 13 1.36 13 0 13 C0 8.71 0 4.42 0 0 Z " fill="#33559A" transform="translate(195,52)"/>
<path d="M0 0 C4 1 4 1 5 2 C5.27314815 7.73611111 5.27314815 7.73611111 5 10 C4.34 10.66 3.68 11.32 3 12 C2.01 12 1.02 12 0 12 C0 8.04 0 4.08 0 0 Z " fill="#31549B" transform="translate(195,37)"/>
<path d="M0 0 C0.33 0 0.66 0 1 0 C1.33820166 1.5823006 1.67035939 3.16589375 2 4.75 C2.185625 5.63171875 2.37125 6.5134375 2.5625 7.421875 C3 10 3 10 3 14 C1.35 14 -0.3 14 -2 14 C-1.85923685 12.0412957 -1.7122324 10.08303907 -1.5625 8.125 C-1.48128906 7.03445312 -1.40007812 5.94390625 -1.31640625 4.8203125 C-1 2 -1 2 0 0 Z " fill="#3D5A92" transform="translate(255,43)"/>
<path d="M0 0 C2.58926331 2.58926331 2.37398043 4.02705279 2.625 7.625 C2.69976562 8.62789062 2.77453125 9.63078125 2.8515625 10.6640625 C2.92503906 11.82035156 2.92503906 11.82035156 3 13 C1.35 13 -0.3 13 -2 13 C-1.85769192 11.58297487 -1.71099254 10.1663904 -1.5625 8.75 C-1.48128906 7.96109375 -1.40007812 7.1721875 -1.31640625 6.359375 C-1.02365007 4.17635361 -0.57935581 2.1226818 0 0 Z " fill="#375797" transform="translate(216,44)"/>
<path d="M0 0 C0.804375 0.12375 1.60875 0.2475 2.4375 0.375 C3.0975 1.365 3.7575 2.355 4.4375 3.375 C1.1375 3.375 -2.1625 3.375 -5.5625 3.375 C-2.5625 0.375 -2.5625 0.375 0 0 Z " fill="#52668F" transform="translate(103.5625,97.625)"/>
</svg>
